<svg viewBox="0 0 24 24" fill="none" xmlns="http://www.w3.org/2000/svg">
<path d="M5 1C5 0.447715 5.44772 0 6 0H18C18.5523 0 19 0.447715 19 1V6H5V1Z" fill="currentColor"/>
<rect x="5" y="14" width="14" height="8" rx="1" fill="currentColor"/>
<path fill-rule="evenodd" clip-rule="evenodd" d="M0 11C0 8.79086 1.79086 7 4 7H20C22.2091 7 24 8.79086 24 11V16C24 16.5523 23.5523 17 23 17H20V15C20 13.8954 19.1046 13 18 13H6C4.89543 13 4 13.8954 4 15V17H1C0.447716 17 0 16.5523 0 16V11ZM18 14C18.5523 14 19 14.4477 19 15V17H5V15C5 14.4477 5.44772 14 6 14H18ZM19 11C19.5523 11 20 10.5523 20 10C20 9.44772 19.5523 9 19 9C18.4477 9 18 9.44772 18 10C18 10.5523 18.4477 11 19 11Z" fill="currentColor"/>
</svg>
