<svg width="20" height="21" viewBox="0 0 20 21" fill="none" xmlns="http://www.w3.org/2000/svg">
    <path fill-rule="evenodd" clip-rule="evenodd"
          d="M10.5226 0.336356C10.1803 0.243676 9.8195 0.243676 9.4772 0.336356C9.07984 0.443945 8.74529 0.706599 8.47828 0.916229L8.40365 0.974646L1.54364 6.31012C1.16701 6.6024 0.835194 6.85991 0.587936 7.19421C0.370944 7.48759 0.209298 7.8181 0.110936 8.1695C-0.00114429 8.56992 -0.000690457 8.98993 -0.000175235 9.46667L-0.000105617 16.8385C-0.000123498 17.3657 -0.000138996 17.8204 0.0304648 18.195C0.0627658 18.5904 0.134082 18.9836 0.326876 19.362C0.614496 19.9264 1.07344 20.3854 1.63792 20.673C2.0163 20.8658 2.40952 20.9371 2.80487 20.9694C3.17943 21 3.63419 21 4.16133 21H15.8385C16.3656 21 16.8204 21 17.1949 20.9694C17.5903 20.9371 17.9835 20.8658 18.3619 20.673C18.9264 20.3854 19.3853 19.9264 19.6729 19.362C19.8657 18.9836 19.937 18.5904 19.9693 18.195C19.9999 17.8204 19.9999 17.3657 19.9999 16.8386L20 9.46667C20.0005 8.98993 20.0009 8.56992 19.8889 8.1695C19.7905 7.8181 19.6288 7.48759 19.4119 7.19421C19.1646 6.8599 18.8328 6.6024 18.4561 6.31011L11.5961 0.974647L11.5215 0.916233C11.2545 0.706602 10.92 0.443946 10.5226 0.336356ZM5.99991 15C5.44762 15 4.99991 15.4477 4.99991 16C4.99991 16.5523 5.44762 17 5.99991 17H13.9999C14.5522 17 14.9999 16.5523 14.9999 16C14.9999 15.4477 14.5522 15 13.9999 15H5.99991Z"
          fill="currentColor"/>
</svg>
