<svg width="22" height="18" viewBox="0 0 22 18" fill="none" xmlns="http://www.w3.org/2000/svg">
    <path d="M1.13352 5.18144C0.83359 4.9672 0.683626 4.86008 0.552879 4.84617C0.357353 4.82537 0.161394 4.92622 0.06467 5.09741C-7.98702e-06 5.21189 -5.18808e-06 5.39416 4.11733e-07 5.75869V12.2413C-1.19539e-05 13.0463 -2.2158e-05 13.7106 0.0441949 14.2518C0.0901201 14.8139 0.188684 15.3306 0.435975 15.816C0.819469 16.5686 1.43139 17.1805 2.18404 17.564C2.66937 17.8113 3.18608 17.9099 3.74818 17.9558C4.28937 18 4.95372 18 5.75868 18H16.2413C17.0463 18 17.7106 18 18.2518 17.9558C18.8139 17.9099 19.3306 17.8113 19.816 17.564C20.5686 17.1805 21.1805 16.5686 21.564 15.816C21.8113 15.3306 21.9099 14.8139 21.9558 14.2518C22 13.7106 22 13.0463 22 12.2413V5.75868C22 5.58001 22 5.49068 21.9836 5.42829C21.9096 5.14627 21.603 4.98561 21.329 5.08531C21.2684 5.10737 21.194 5.15886 21.0453 5.26184L13.3032 10.6219C12.7542 11.0032 12.2722 11.3379 11.7247 11.4706C11.2458 11.5867 10.7456 11.583 10.2685 11.4599C9.72293 11.3191 9.24592 10.9774 8.70265 10.5881L1.13352 5.18144Z"
          fill="currentColor"/>
    <path d="M21.1328 2.76872C21.3174 2.64092 21.4097 2.57702 21.4664 2.47424C21.5104 2.39443 21.5356 2.26804 21.5255 2.17745C21.5125 2.06079 21.463 1.98377 21.3638 1.82973C20.9839 1.23964 20.4373 0.752556 19.816 0.435975C19.3306 0.188684 18.8139 0.0901201 18.2518 0.0441949C17.7106 -2.21543e-05 17.0463 -1.19522e-05 16.2413 4.11646e-07H5.7587C4.95374 -1.19522e-05 4.28937 -2.2158e-05 3.74818 0.0441949C3.18608 0.0901201 2.66937 0.188684 2.18404 0.435975C1.62501 0.720816 1.1418 1.1326 0.774365 1.63335C0.658766 1.79089 0.600967 1.86966 0.581924 1.98921C0.567033 2.08269 0.587826 2.21257 0.631161 2.29674C0.686574 2.40436 0.782692 2.47302 0.974926 2.61033L9.75004 8.87827C10.4773 9.39771 10.6316 9.48808 10.7681 9.52332C10.9272 9.56436 11.0939 9.56559 11.2535 9.52689C11.3906 9.49367 11.5463 9.40557 12.281 8.89688L21.1328 2.76872Z"
          fill="currentColor"/>
</svg>
