<svg viewBox="0 0 24 24" fill="none" xmlns="http://www.w3.org/2000/svg">
<path fill-rule="evenodd" clip-rule="evenodd" d="M0 2C0 0.895432 0.895416 0 2 0H19C20.1046 0 21 0.895432 21 2V14C21 15.1046 20.1046 16 19 16L5 16L0 20V2ZM7 8C7 8.82843 6.32843 9.5 5.5 9.5C4.67157 9.5 4 8.82843 4 8C4 7.17157 4.67157 6.5 5.5 6.5C6.32843 6.5 7 7.17157 7 8ZM12 8C12 8.82843 11.3284 9.5 10.5 9.5C9.67157 9.5 9 8.82843 9 8C9 7.17157 9.67157 6.5 10.5 6.5C11.3284 6.5 12 7.17157 12 8ZM15.5 9.5C16.3284 9.5 17 8.82843 17 8C17 7.17157 16.3284 6.5 15.5 6.5C14.6716 6.5 14 7.17157 14 8C14 8.82843 14.6716 9.5 15.5 9.5Z" fill="currentColor"/>
</svg>
