<svg viewBox="0 0 24 24" fill="none" xmlns="http://www.w3.org/2000/svg">
<path d="M13.3526 12.3523L11.7225 14.3868C9.19857 12.9038 7.09481 10.8013 5.61039 8.27819L7.648 6.64819C7.88678 6.45702 8.05553 6.19215 8.1279 5.89496C8.20026 5.59777 8.17217 5.28497 8.04801 5.00543L6.19075 0.823021C6.0575 0.523089 5.82211 0.280193 5.52651 0.137602C5.2309 -0.0049899 4.89427 -0.0380177 4.57659 0.0444014L1.04069 0.961642C0.710843 1.04789 0.424078 1.2521 0.234697 1.53559C0.0453169 1.81909 -0.0335298 2.16219 0.0130887 2.49992C0.63352 6.91828 2.67556 11.0145 5.83051 14.1694C8.98545 17.3244 13.0818 19.3664 17.5002 19.9868C17.838 20.0336 18.1812 19.9549 18.4647 19.7655C18.7483 19.5761 18.9524 19.2892 19.0385 18.9592L19.9557 15.4237C20.038 15.106 20.0049 14.7695 19.8624 14.4739C19.7199 14.1782 19.4772 13.9427 19.1774 13.8092L14.9957 11.952C14.7161 11.8277 14.4031 11.7996 14.1059 11.872C13.8086 11.9445 13.5437 12.1134 13.3526 12.3523Z" fill="currentColor"/>
</svg>
