<svg viewBox="0 0 24 24" fill="none" xmlns="http://www.w3.org/2000/svg">
<path fill-rule="evenodd" clip-rule="evenodd" d="M16.0554 21.8805C12.8621 20.9741 9.84919 19.2638 7.33755 16.7522C4.82592 14.2405 3.11557 11.2276 2.20923 8.03436C2.20386 8.01543 2.19853 7.99667 2.19324 7.97805C2.04573 7.45904 1.93134 7.05656 1.9297 6.50467C1.92782 5.8739 2.13333 5.08366 2.44226 4.53372C2.97354 3.58795 4.11431 2.37589 5.09963 1.87752C5.95097 1.44691 6.95637 1.44691 7.80771 1.87752C8.64995 2.30352 9.58794 3.25708 10.1109 4.06134C10.7573 5.05568 10.7573 6.33755 10.1109 7.33189C9.93761 7.59834 9.69068 7.84485 9.40402 8.13102C9.31476 8.22013 9.21651 8.28452 9.28176 8.42041C9.92958 9.76969 10.8131 11.0353 11.9337 12.156C13.0544 13.2766 14.32 14.1601 15.6693 14.808C15.81 14.8755 15.8654 14.7791 15.9587 14.6857C16.2449 14.399 16.4914 14.1521 16.7578 13.9789C17.7522 13.3324 19.034 13.3324 20.0284 13.9789C20.8111 14.4878 21.7895 15.4463 22.2122 16.282C22.6428 17.1333 22.6428 18.1387 22.2122 18.9901C21.7138 19.9754 20.5018 21.1162 19.556 21.6475C19.0061 21.9564 18.2158 22.1619 17.585 22.16C17.0331 22.1584 16.6307 22.044 16.1117 21.8965C16.0931 21.8912 16.0743 21.8858 16.0554 21.8805Z" fill="currentColor"/>
</svg>
