<svg width="24" height="24" viewBox="0 0 24 24" fill="none" xmlns="http://www.w3.org/2000/svg">
    <path fill-rule="evenodd" clip-rule="evenodd"
          d="M17.0316 12.8768C17.1693 12.3419 17.7144 12.0199 18.2493 12.1576C20.4056 12.7126 22 14.6688 22 17V19C22 19.5523 21.5523 20 21 20C20.4478 20 20 19.5523 20 19V17C20 15.6035 19.0449 14.4275 17.7508 14.0945C17.2159 13.9568 16.8939 13.4116 17.0316 12.8768Z"
          fill="currentColor"/>
    <path fill-rule="evenodd" clip-rule="evenodd"
          d="M13.5731 0.915544C13.7803 0.40361 14.3633 0.156595 14.8753 0.363821C16.7058 1.10481 18 2.90006 18 5C18 7.09994 16.7058 8.89519 14.8753 9.63618C14.3633 9.8434 13.7803 9.59639 13.5731 9.08446C13.3659 8.57252 13.6129 7.98953 14.1248 7.7823C15.2261 7.33652 16 6.25744 16 5C16 3.74256 15.2261 2.66348 14.1248 2.2177C13.6129 2.01047 13.3659 1.42748 13.5731 0.915544Z"
          fill="currentColor"/>
    <path fill-rule="evenodd" clip-rule="evenodd"
          d="M6.17898 12C7.72635 12.0005 9.27372 12.0005 10.8211 12C11.9117 11.9996 12.6559 11.9994 13.2941 12.1704C15.0196 12.6327 16.3673 13.9804 16.8297 15.7059C17.0599 16.5652 16.9933 17.4836 17.0002 18.3641C17.0011 18.471 17.0028 18.6872 16.9489 18.8882C16.8102 19.4059 16.4059 19.8102 15.8883 19.9489C15.6873 20.0028 15.471 20.001 15.3641 20.0002C10.7891 19.9637 6.21096 19.9637 1.63595 20.0002C1.52904 20.001 1.31282 20.0028 1.11181 19.9489C0.59417 19.8102 0.189849 19.4059 0.0511481 18.8882C-0.00271372 18.6872 -0.000989954 18.471 -0.000137727 18.3641C0.00686427 17.4858 -0.0594785 16.5639 0.170408 15.7059C0.632743 13.9804 1.98048 12.6327 3.70594 12.1704C4.34416 11.9994 5.08836 11.9996 6.17898 12Z"
          fill="currentColor"/>
    <path fill-rule="evenodd" clip-rule="evenodd"
          d="M3.50004 5C3.50004 2.23858 5.73861 0 8.50004 0C11.2615 0 13.5 2.23858 13.5 5C13.5 7.76142 11.2615 10 8.50004 10C5.73861 10 3.50004 7.76142 3.50004 5Z"
          fill="currentColor"/>
</svg>
