<svg viewBox="0 0 24 24" fill="none" xmlns="http://www.w3.org/2000/svg">
<path d="M22.8043 1.33374C22.7451 1.30114 22.678 1.28459 22.61 1.28577C22.5421 1.28696 22.4756 1.30585 22.4176 1.34049L16.4906 4.88798V9.68347L22.4176 13.231C22.4777 13.2668 22.5467 13.2858 22.6171 13.2857C22.7186 13.2857 22.816 13.2462 22.8878 13.1759C22.9597 13.1056 23 13.0102 23 12.9107V1.66074C23 1.59413 22.9818 1.52872 22.9475 1.47125C22.9131 1.41378 22.8637 1.36631 22.8043 1.33374Z" fill="currentColor"/>
<path d="M13.0693 0H2.11935C1.55744 0.00054151 1.0187 0.216218 0.621363 0.599698C0.224029 0.983178 0.000561073 1.50313 0 2.04545V12.9545C0.000561073 13.4969 0.224029 14.0168 0.621363 14.4003C1.0187 14.7838 1.55744 14.9995 2.11935 15H13.0693C13.6312 14.9995 14.17 14.7838 14.5673 14.4003C14.9646 14.0168 15.1881 13.4969 15.1887 12.9545V2.04545C15.1881 1.50313 14.9646 0.983178 14.5673 0.599698C14.17 0.216218 13.6312 0.00054151 13.0693 0ZM3.53225 4.43182C3.32267 4.43182 3.11779 4.37184 2.94353 4.25946C2.76926 4.14708 2.63344 3.98735 2.55324 3.80047C2.47303 3.61359 2.45205 3.40796 2.49294 3.20957C2.53382 3.01118 2.63475 2.82894 2.78295 2.68591C2.93115 2.54288 3.11996 2.44548 3.32552 2.40602C3.53108 2.36655 3.74414 2.38681 3.93777 2.46421C4.1314 2.54162 4.2969 2.67271 4.41334 2.84089C4.52978 3.00908 4.59193 3.20681 4.59193 3.40909C4.59193 3.68034 4.48028 3.94047 4.28155 4.13227C4.08283 4.32407 3.81329 4.43182 3.53225 4.43182Z" fill="currentColor"/>
</svg>
