<svg viewBox="0 0 20 20" fill="none" stroke="currentColor" xmlns="http://www.w3.org/2000/svg">
<g id="at-sign" clip-path="url(#clip0_8204_9723)">
<path id="Icon" d="M13.3334 6.66672V10.8334C13.3334 11.4964 13.5968 12.1323 14.0657 12.6012C14.5345 13.07 15.1704 13.3334 15.8334 13.3334C16.4965 13.3334 17.1324 13.07 17.6012 12.6012C18.07 12.1323 18.3334 11.4964 18.3334 10.8334V10.0001C18.3333 8.11924 17.6969 6.29378 16.5278 4.8205C15.3587 3.34721 13.7256 2.31274 11.894 1.8853C10.0624 1.45786 8.14003 1.66259 6.43955 2.46619C4.73906 3.2698 3.36042 4.62502 2.5278 6.31149C1.69519 7.99796 1.45756 9.9165 1.85356 11.7551C2.24956 13.5938 3.2559 15.2444 4.70895 16.4386C6.16199 17.6328 7.97628 18.3003 9.85681 18.3327C11.7373 18.365 13.5735 17.7603 15.0668 16.6167M13.3334 10.0001C13.3334 11.841 11.841 13.3334 10.0001 13.3334C8.15914 13.3334 6.66676 11.841 6.66676 10.0001C6.66676 8.1591 8.15914 6.66672 10.0001 6.66672C11.841 6.66672 13.3334 8.1591 13.3334 10.0001Z" stroke-width="1.66667" stroke-linecap="round" stroke-linejoin="round"/>
</g>
<defs>
<clipPath id="clip0_8204_9723">
<rect width="20" height="20" fill="white"/>
</clipPath>
</defs>
</svg>
