<svg viewBox="0 0 20 20" fill="none" stroke="currentColor" xmlns="http://www.w3.org/2000/svg">
<g id="bell-04">
<path id="Icon" d="M11.9924 15.0126C12.3498 16.3462 11.5583 17.7171 10.2247 18.0744C8.89101 18.4318 7.52017 17.6403 7.16281 16.3067M9.07622 4.78428C9.32973 4.3282 9.41323 3.77695 9.26752 3.23312C8.96972 2.12173 7.82735 1.46219 6.71596 1.75998C5.60458 2.05778 4.94503 3.20015 5.24282 4.31153C5.38854 4.85536 5.73649 5.29101 6.18407 5.55923M13.5299 7.87132C13.2324 6.76121 12.4383 5.8329 11.3223 5.29063C10.2062 4.74835 8.85959 4.63652 7.57869 4.97973C6.2978 5.32295 5.18752 6.0931 4.49212 7.12075C3.79672 8.14841 3.57316 9.3494 3.87061 10.4595C4.36276 12.2962 4.2672 13.7615 3.9564 14.875C3.60218 16.144 3.42507 16.7786 3.47292 16.906C3.52766 17.0517 3.56726 17.0917 3.71245 17.148C3.83936 17.1972 4.3725 17.0543 5.43879 16.7686L15.3263 14.1192C16.3926 13.8335 16.9258 13.6907 17.0111 13.5846C17.1087 13.4633 17.123 13.4089 17.0975 13.2553C17.0752 13.121 16.6046 12.66 15.6633 11.7381C14.8374 10.9292 14.022 9.70803 13.5299 7.87132Z" stroke-width="1.66667" stroke-linecap="round" stroke-linejoin="round"/>
</g>
</svg>
