<svg viewBox="0 0 16 16" fill="none" xmlns="http://www.w3.org/2000/svg">
<path d="M1.33301 8.03333C2.68687 8.18391 3.94919 8.7907 4.91242 9.75392C5.87564 10.7171 6.48243 11.9795 6.63301 13.3333M1.33301 10.7333C1.9736 10.864 2.56164 11.1801 3.02393 11.6424C3.48622 12.1047 3.80236 12.6927 3.93301 13.3333M1.33301 13.3333H1.33967M9.33301 14H11.4663C12.5864 14 13.1465 14 13.5743 13.782C13.9506 13.5903 14.2566 13.2843 14.4484 12.908C14.6663 12.4802 14.6663 11.9201 14.6663 10.8V5.2C14.6663 4.0799 14.6663 3.51984 14.4484 3.09202C14.2566 2.71569 13.9506 2.40973 13.5743 2.21799C13.1465 2 12.5864 2 11.4663 2H4.53301C3.4129 2 2.85285 2 2.42503 2.21799C2.0487 2.40973 1.74274 2.71569 1.55099 3.09202C1.33301 3.51984 1.33301 4.0799 1.33301 5.2V5.33333" stroke="currentColor" stroke-width="1.5" stroke-linecap="round" stroke-linejoin="round"/>
</svg>
