<svg viewBox="0 0 20 20" height="16" width="16" fill="none" stroke="currentColor" xmlns="http://www.w3.org/2000/svg">
<g id="copy-03" clip-path="url(#clip0_8950_4686)">
<path id="Icon" d="M6.66663 6.6665V4.33317C6.66663 3.39975 6.66663 2.93304 6.84828 2.57652C7.00807 2.26292 7.26304 2.00795 7.57664 1.84816C7.93316 1.6665 8.39987 1.6665 9.33329 1.6665H15.6666C16.6 1.6665 17.0668 1.6665 17.4233 1.84816C17.7369 2.00795 17.9918 2.26292 18.1516 2.57652C18.3333 2.93304 18.3333 3.39975 18.3333 4.33317V10.6665C18.3333 11.5999 18.3333 12.0666 18.1516 12.4232C17.9918 12.7368 17.7369 12.9917 17.4233 13.1515C17.0668 13.3332 16.6 13.3332 15.6666 13.3332H13.3333M4.33329 18.3332H10.6666C11.6 18.3332 12.0668 18.3332 12.4233 18.1515C12.7369 17.9917 12.9918 17.7368 13.1516 17.4232C13.3333 17.0666 13.3333 16.5999 13.3333 15.6665V9.33317C13.3333 8.39975 13.3333 7.93304 13.1516 7.57652C12.9918 7.26292 12.7369 7.00795 12.4233 6.84816C12.0668 6.6665 11.6 6.6665 10.6666 6.6665H4.33329C3.39987 6.6665 2.93316 6.6665 2.57664 6.84816C2.26304 7.00795 2.00807 7.26292 1.84828 7.57652C1.66663 7.93304 1.66663 8.39975 1.66663 9.33317V15.6665C1.66663 16.5999 1.66663 17.0666 1.84828 17.4232C2.00807 17.7368 2.26304 17.9917 2.57664 18.1515C2.93316 18.3332 3.39987 18.3332 4.33329 18.3332Z" stroke-width="1.66667" stroke-linecap="round" stroke-linejoin="round"/>
</g>
<defs>
<clipPath id="clip0_8950_4686">
<rect width="20" height="20" fill="white"/>
</clipPath>
</defs>
</svg>
