<svg viewBox="0 0 19 19" fill="none" stroke="currentColor" xmlns="http://www.w3.org/2000/svg">
<path id="Icon" d="M12.8337 6.1665V3.83317C12.8337 2.89975 12.8337 2.43304 12.652 2.07652C12.4922 1.76292 12.2372 1.50795 11.9236 1.34816C11.5671 1.1665 11.1004 1.1665 10.167 1.1665H3.83366C2.90024 1.1665 2.43353 1.1665 2.07701 1.34816C1.7634 1.50795 1.50844 1.76292 1.34865 2.07652C1.16699 2.43304 1.16699 2.89975 1.16699 3.83317V10.1665C1.16699 11.0999 1.16699 11.5666 1.34865 11.9232C1.50844 12.2368 1.7634 12.4917 2.07701 12.6515C2.43353 12.8332 2.90024 12.8332 3.83366 12.8332H6.16699M8.83366 17.8332H15.167C16.1004 17.8332 16.5671 17.8332 16.9236 17.6515C17.2372 17.4917 17.4922 17.2368 17.652 16.9232C17.8337 16.5666 17.8337 16.0999 17.8337 15.1665V8.83317C17.8337 7.89975 17.8337 7.43304 17.652 7.07652C17.4922 6.76292 17.2372 6.50795 16.9236 6.34816C16.5671 6.1665 16.1004 6.1665 15.167 6.1665H8.83366C7.90024 6.1665 7.43353 6.1665 7.07701 6.34816C6.7634 6.50795 6.50844 6.76292 6.34865 7.07652C6.16699 7.43304 6.16699 7.89975 6.16699 8.83317V15.1665C6.16699 16.0999 6.16699 16.5666 6.34865 16.9232C6.50844 17.2368 6.7634 17.4917 7.07701 17.6515C7.43353 17.8332 7.90024 17.8332 8.83366 17.8332Z" stroke-width="1.66667" stroke-linecap="round" stroke-linejoin="round"/>
</svg>
