<svg viewBox="0 0 13 12" fill="none" stroke="currentColor" xmlns="http://www.w3.org/2000/svg">
<g id="face-neutral" clip-path="url(#clip0_9669_19478)">
<path id="Icon" d="M4.66602 7.5H8.66602M8.16602 4.5H8.17102M5.16602 4.5H5.17102M11.666 6C11.666 8.76142 9.42744 11 6.66602 11C3.90459 11 1.66602 8.76142 1.66602 6C1.66602 3.23858 3.90459 1 6.66602 1C9.42744 1 11.666 3.23858 11.666 6ZM8.41602 4.5C8.41602 4.63807 8.30409 4.75 8.16602 4.75C8.02794 4.75 7.91602 4.63807 7.91602 4.5C7.91602 4.36193 8.02794 4.25 8.16602 4.25C8.30409 4.25 8.41602 4.36193 8.41602 4.5ZM5.41602 4.5C5.41602 4.63807 5.30409 4.75 5.16602 4.75C5.02794 4.75 4.91602 4.63807 4.91602 4.5C4.91602 4.36193 5.02794 4.25 5.16602 4.25C5.30409 4.25 5.41602 4.36193 5.41602 4.5Z" stroke-width="1.5" stroke-linecap="round" stroke-linejoin="round"/>
</g>
<defs>
<clipPath id="clip0_9669_19478">
<rect width="12" height="12" fill="white" transform="translate(0.666016)"/>
</clipPath>
</defs>
</svg>
