<svg viewBox="0 0 16 16" fill="none" stroke="currentColor" xmlns="http://www.w3.org/2000/svg">
<g id="file-download-02">
<path id="Icon" d="M13.3337 8.33331V4.53331C13.3337 3.41321 13.3337 2.85316 13.1157 2.42533C12.9239 2.04901 12.618 1.74305 12.2416 1.5513C11.8138 1.33331 11.2538 1.33331 10.1337 1.33331H5.86699C4.74689 1.33331 4.18683 1.33331 3.75901 1.5513C3.38269 1.74305 3.07673 2.04901 2.88498 2.42533C2.66699 2.85316 2.66699 3.41321 2.66699 4.53331V11.4666C2.66699 12.5868 2.66699 13.1468 2.88498 13.5746C3.07673 13.951 3.38269 14.2569 3.75901 14.4487C4.18683 14.6666 4.74686 14.6666 5.8669 14.6666H8.33366M9.33366 7.33331H5.33366M6.66699 9.99998H5.33366M10.667 4.66665H5.33366M10.0003 12.6666L12.0003 14.6666M12.0003 14.6666L14.0003 12.6666M12.0003 14.6666V10.6666" stroke-width="1.5" stroke-linecap="round" stroke-linejoin="round"/>
</g>
</svg>
