<svg viewBox="0 0 20 20" fill="none" stroke="currentColor" xmlns="http://www.w3.org/2000/svg">
<g id="fingerprint-02">
<path id="Icon" d="M10 8.33317V11.6665M6.20594 2.8507C7.28284 2.10403 8.59033 1.6665 10 1.6665C13.6819 1.6665 16.6667 4.65127 16.6667 8.33317V9.36372M3.68027 6.2049C3.45528 6.87325 3.33334 7.58897 3.33334 8.33317V11.6665C3.33334 14.6956 5.35347 17.2528 8.11997 18.0644M16.3823 13.5988C15.7745 15.6093 14.2426 17.2187 12.2806 17.9329M11.9375 5.1218C11.372 4.77992 10.709 4.58317 10 4.58317C7.92893 4.58317 6.25 6.2621 6.25 8.33317V10.7915M13.75 9.19984V11.6665C13.75 13.7376 12.0711 15.4165 10 15.4165C9.29279 15.4165 8.63131 15.2207 8.06679 14.8804" stroke-width="1.66667" stroke-linecap="round" stroke-linejoin="round"/>
</g>
</svg>
