<svg viewBox="0 0 21 21" stroke="currentColor" fill="none" xmlns="http://www.w3.org/2000/svg">
<g id="layout-grid-02">
<path id="Icon" d="M3 8H18M3 13H18M10.5 3V18M7 3H14C15.4001 3 16.1002 3 16.635 3.27248C17.1054 3.51217 17.4878 3.89462 17.7275 4.36502C18 4.8998 18 5.59987 18 7V14C18 15.4001 18 16.1002 17.7275 16.635C17.4878 17.1054 17.1054 17.4878 16.635 17.7275C16.1002 18 15.4001 18 14 18H7C5.59987 18 4.8998 18 4.36502 17.7275C3.89462 17.4878 3.51217 17.1054 3.27248 16.635C3 16.1002 3 15.4001 3 14V7C3 5.59987 3 4.8998 3.27248 4.36502C3.51217 3.89462 3.89462 3.51217 4.36502 3.27248C4.8998 3 5.59987 3 7 3Z" stroke-width="1.66667" stroke-linecap="round" stroke-linejoin="round"/>
</g>
</svg>
