<svg viewBox="0 0 16 16" fill="none" stroke="currentColor" xmlns="http://www.w3.org/2000/svg">
<g id="phone-hang-up">
<path id="Icon" d="M3.65028 8.57546C2.96299 7.50823 2.45095 6.36089 2.11416 5.17429C2.00735 4.79799 1.95395 4.60984 1.95313 4.33455C1.95222 4.02906 2.0598 3.6154 2.20941 3.34907C2.34424 3.10905 2.52078 2.9325 2.87387 2.57942L2.97895 2.47433C3.33325 2.12004 3.5104 1.94289 3.70065 1.84666C4.07903 1.65528 4.52587 1.65528 4.90424 1.84666C5.0945 1.94289 5.27164 2.12004 5.62594 2.47433L5.75585 2.60425C5.98892 2.83732 6.10546 2.95385 6.18165 3.07104C6.46898 3.51296 6.46898 4.08268 6.18165 4.52461C6.10546 4.6418 5.98892 4.75833 5.75585 4.9914C5.67964 5.06761 5.64154 5.10572 5.60965 5.15026C5.4963 5.30854 5.45717 5.53805 5.51165 5.72495C5.52698 5.77755 5.54694 5.81911 5.58686 5.90224C5.66741 6.07002 5.75304 6.23597 5.84375 6.39986M7.45447 8.54537L7.48443 8.57546C8.28548 9.37651 9.19124 10.009 10.1577 10.473C10.2408 10.5129 10.2823 10.5329 10.3349 10.5482C10.5218 10.6027 10.7513 10.5636 10.9096 10.4502C10.9542 10.4183 10.9923 10.3802 11.0685 10.304C11.3016 10.071 11.4181 9.95443 11.5353 9.87824C11.9772 9.59091 12.5469 9.59091 12.9889 9.87824C13.106 9.95443 13.2226 10.071 13.4556 10.304L13.5856 10.4339C13.9399 10.7882 14.117 10.9654 14.2132 11.1556C14.4046 11.534 14.4046 11.9809 14.2132 12.3592C14.117 12.5495 13.9399 12.7266 13.5856 13.0809L13.4805 13.186C13.1274 13.5391 12.9508 13.7156 12.7108 13.8505C12.4445 14.0001 12.0308 14.1077 11.7253 14.1068C11.45 14.1059 11.2619 14.0525 10.8856 13.9457C8.86333 13.3718 6.95509 12.2888 5.36311 10.6968L5.33317 10.6667M13.9997 2.00008L1.99974 14.0001" stroke-width="1.5" stroke-linecap="round" stroke-linejoin="round"/>
</g>
</svg>
