<svg viewBox="0 0 20 20" fill="none" stroke="currentColor" xmlns="http://www.w3.org/2000/svg">
<g id="settings-02">
<g id="Icon">
<path d="M7.82925 16.1424L8.31629 17.2378C8.46107 17.5639 8.69735 17.8409 8.99647 18.0353C9.2956 18.2298 9.64471 18.3332 10.0015 18.3332C10.3582 18.3332 10.7073 18.2298 11.0065 18.0353C11.3056 17.8409 11.5419 17.5639 11.6867 17.2378L12.1737 16.1424C12.3471 15.7538 12.6387 15.4297 13.007 15.2165C13.3777 15.0027 13.8065 14.9116 14.232 14.9563L15.4237 15.0832C15.7784 15.1207 16.1364 15.0545 16.4543 14.8926C16.7721 14.7307 17.0362 14.4801 17.2144 14.1711C17.3929 13.8623 17.4779 13.5084 17.4592 13.1522C17.4405 12.7961 17.3188 12.453 17.1089 12.1647L16.4033 11.1952C16.1521 10.8474 16.0179 10.4289 16.02 9.99984C16.0199 9.57199 16.1554 9.15513 16.407 8.8091L17.1126 7.83965C17.3225 7.5513 17.4442 7.20823 17.4629 6.85207C17.4817 6.4959 17.3966 6.14195 17.2181 5.83317C17.0399 5.5242 16.7758 5.27358 16.458 5.11169C16.1401 4.94981 15.7821 4.88361 15.4274 4.92113L14.2357 5.04799C13.8102 5.09268 13.3814 5.00161 13.0107 4.7878C12.6417 4.57338 12.35 4.24764 12.1774 3.85725L11.6867 2.76187C11.5419 2.43581 11.3056 2.15877 11.0065 1.96434C10.7073 1.76991 10.3582 1.66645 10.0015 1.6665C9.64471 1.66645 9.2956 1.76991 8.99647 1.96434C8.69735 2.15877 8.46107 2.43581 8.31629 2.76187L7.82925 3.85725C7.65669 4.24764 7.36498 4.57338 6.99592 4.7878C6.62526 5.00161 6.19647 5.09268 5.77092 5.04799L4.57555 4.92113C4.22082 4.88361 3.86283 4.94981 3.54498 5.11169C3.22712 5.27358 2.96306 5.5242 2.78481 5.83317C2.60632 6.14195 2.52129 6.4959 2.54003 6.85207C2.55877 7.20823 2.68046 7.5513 2.89036 7.83965L3.59592 8.8091C3.84753 9.15513 3.98303 9.57199 3.98295 9.99984C3.98303 10.4277 3.84753 10.8445 3.59592 11.1906L2.89036 12.16C2.68046 12.4484 2.55877 12.7914 2.54003 13.1476C2.52129 13.5038 2.60632 13.8577 2.78481 14.1665C2.96324 14.4753 3.22733 14.7258 3.54514 14.8877C3.86294 15.0495 4.22085 15.1158 4.57555 15.0785L5.76721 14.9517C6.19277 14.907 6.62156 14.9981 6.99221 15.2119C7.36265 15.4257 7.65572 15.7515 7.82925 16.1424Z" stroke-width="1.66667" stroke-linecap="round" stroke-linejoin="round"/>
<path d="M9.99998 12.4998C11.3807 12.4998 12.5 11.3805 12.5 9.99984C12.5 8.61913 11.3807 7.49984 9.99998 7.49984C8.61927 7.49984 7.49998 8.61913 7.49998 9.99984C7.49998 11.3805 8.61927 12.4998 9.99998 12.4998Z" stroke-width="1.66667" stroke-linecap="round" stroke-linejoin="round"/>
</g>
</g>
</svg>
