<svg viewBox="0 0 16 20" fill="none" stroke="currentColor" xmlns="http://www.w3.org/2000/svg">
<path id="Icon" d="M8.00001 4.99984H8.00834M5.33334 18.3332H10.6667C12.0668 18.3332 12.7669 18.3332 13.3017 18.0607C13.7721 17.821 14.1545 17.4386 14.3942 16.9681C14.6667 16.4334 14.6667 15.7333 14.6667 14.3332V5.6665C14.6667 4.26637 14.6667 3.56631 14.3942 3.03153C14.1545 2.56112 13.7721 2.17867 13.3017 1.93899C12.7669 1.6665 12.0668 1.6665 10.6667 1.6665H5.33334C3.93321 1.6665 3.23315 1.6665 2.69837 1.93899C2.22796 2.17867 1.84551 2.56112 1.60583 3.03153C1.33334 3.56631 1.33334 4.26637 1.33334 5.6665V14.3332C1.33334 15.7333 1.33334 16.4334 1.60583 16.9681C1.84551 17.4386 2.22796 17.821 2.69837 18.0607C3.23315 18.3332 3.93321 18.3332 5.33334 18.3332ZM8.41668 4.99984C8.41668 5.22996 8.23013 5.4165 8.00001 5.4165C7.76989 5.4165 7.58334 5.22996 7.58334 4.99984C7.58334 4.76972 7.76989 4.58317 8.00001 4.58317C8.23013 4.58317 8.41668 4.76972 8.41668 4.99984ZM11.3333 11.6665C11.3333 13.5075 9.84096 14.9998 8.00001 14.9998C6.15906 14.9998 4.66668 13.5075 4.66668 11.6665C4.66668 9.82556 6.15906 8.33317 8.00001 8.33317C9.84096 8.33317 11.3333 9.82556 11.3333 11.6665Z" stroke-width="1.66667" stroke-linecap="round" stroke-linejoin="round"/>
</svg>
