<svg viewBox="0 0 40 40" fill="none" xmlns="http://www.w3.org/2000/svg">
<g id="star-01" filter="url(#filter0_dd_9537_7057)">
<path id="Icon" d="M18.8041 5.75549C19.1882 4.97725 19.3803 4.58814 19.6411 4.46382C19.8679 4.35565 20.1315 4.35565 20.3584 4.46382C20.6191 4.58814 20.8112 4.97725 21.1953 5.75549L24.8398 13.1388C24.9532 13.3685 25.0099 13.4834 25.0928 13.5726C25.1661 13.6516 25.2541 13.7155 25.3519 13.761C25.4623 13.8123 25.589 13.8309 25.8425 13.8679L33.9947 15.0595C34.8531 15.1849 35.2823 15.2477 35.481 15.4574C35.6538 15.6398 35.7351 15.8905 35.7022 16.1396C35.6644 16.4259 35.3536 16.7286 34.7321 17.3339L28.8354 23.0773C28.6516 23.2564 28.5597 23.3459 28.5004 23.4524C28.4479 23.5467 28.4142 23.6503 28.4012 23.7575C28.3865 23.8785 28.4082 24.0049 28.4516 24.2579L29.8429 32.3702C29.9897 33.2258 30.0631 33.6536 29.9252 33.9075C29.8052 34.1283 29.5919 34.2833 29.3448 34.3291C29.0607 34.3817 28.6765 34.1797 27.9082 33.7756L20.6203 29.943C20.3932 29.8236 20.2797 29.7639 20.1601 29.7404C20.0542 29.7197 19.9452 29.7197 19.8393 29.7404C19.7197 29.7639 19.6062 29.8236 19.3791 29.943L12.0912 33.7756C11.3229 34.1797 10.9387 34.3817 10.6546 34.3291C10.4075 34.2833 10.1942 34.1283 10.0742 33.9075C9.93634 33.6536 10.0097 33.2258 10.1565 32.3702L11.5478 24.2579C11.5912 24.0049 11.6129 23.8785 11.5982 23.7575C11.5852 23.6503 11.5515 23.5467 11.499 23.4524C11.4397 23.3459 11.3478 23.2564 11.164 23.0773L5.26727 17.3339C4.64578 16.7286 4.33503 16.4259 4.29722 16.1396C4.26432 15.8905 4.3456 15.6398 4.51843 15.4574C4.71707 15.2477 5.14629 15.1849 6.00475 15.0595L14.1569 13.8679C14.4104 13.8309 14.5371 13.8123 14.6475 13.761C14.7453 13.7155 14.8333 13.6516 14.9067 13.5726C14.9895 13.4834 15.0462 13.3685 15.1596 13.1388L18.8041 5.75549Z" stroke-width="2" stroke-linecap="round" stroke-linejoin="round"/>
</g>
<defs>
<filter id="filter0_dd_9537_7057" x="-3" y="-2" width="46" height="46" filterUnits="userSpaceOnUse" color-interpolation-filters="sRGB">
<feFlood flood-opacity="0" result="BackgroundImageFix"/>
<feColorMatrix in="SourceAlpha" type="matrix" values="0 0 0 0 0 0 0 0 0 0 0 0 0 0 0 0 0 0 127 0" result="hardAlpha"/>
<feOffset dy="1"/>
<feGaussianBlur stdDeviation="1"/>
<feComposite in2="hardAlpha" operator="out"/>
<feColorMatrix type="matrix" values="0 0 0 0 0.0627451 0 0 0 0 0.0941176 0 0 0 0 0.156863 0 0 0 0.06 0"/>
<feBlend mode="normal" in2="BackgroundImageFix" result="effect1_dropShadow_9537_7057"/>
<feColorMatrix in="SourceAlpha" type="matrix" values="0 0 0 0 0 0 0 0 0 0 0 0 0 0 0 0 0 0 127 0" result="hardAlpha"/>
<feOffset dy="1"/>
<feGaussianBlur stdDeviation="1.5"/>
<feComposite in2="hardAlpha" operator="out"/>
<feColorMatrix type="matrix" values="0 0 0 0 0.0627451 0 0 0 0 0.0941176 0 0 0 0 0.156863 0 0 0 0.1 0"/>
<feBlend mode="normal" in2="effect1_dropShadow_9537_7057" result="effect2_dropShadow_9537_7057"/>
<feBlend mode="normal" in="SourceGraphic" in2="effect2_dropShadow_9537_7057" result="shape"/>
</filter>
</defs>
</svg>
