<svg viewBox="0 0 48 48" stroke="none" xmlns="http://www.w3.org/2000/svg">
    <g id="Content">
        <g id="Subtract">
            <path d="M3.3461 10.5H0L14.0606 33.7691C15.5126 36.0818 18.0283 37.0296 20.3052 36.7852L4.96229 11.388C4.61652 10.8374 3.9966 10.502 3.3461 10.5Z"/>
            <path d="M12.1907 10.5C12.8412 10.502 13.4666 10.8374 13.8123 11.388L23.5483 27.5061C23.7542 27.8416 24.2447 27.843 24.4482 27.5061L33.5797 12.395H33.5806L33.8427 11.9596L34.2066 11.357C34.5568 10.825 35.1869 10.502 35.8251 10.5H39.1546L26.2217 31.9169C27.364 33.4219 29.6397 33.4073 30.7352 31.7646L43.0658 11.3387C43.1476 11.2175 43.2436 11.1075 43.3507 11.01C43.6301 10.7596 44.0594 10.5212 44.6087 10.501C44.6288 10.5003 44.6489 10.5 44.6691 10.5L48 10.5L33.9684 33.7305C32.7371 35.7409 30.555 36.8242 28.4009 36.8224C26.2657 36.8206 24.0873 35.6979 22.8969 33.7691L8.83604 10.5H12.1907Z"/>
        </g>
    </g>
</svg>
