<svg width="1102" height="192" viewBox="0 0 1102 192" fill="none" xmlns="http://www.w3.org/2000/svg">
<mask id="mask0_1062_46568" style="mask-type:alpha" maskUnits="userSpaceOnUse" x="1" y="25" width="1100" height="167">
<rect width="1100" height="167" transform="translate(1 25)" fill="url(#paint0_linear_1062_46568)"/>
</mask>
<g mask="url(#mask0_1062_46568)">
<path opacity="0.1" d="M1069.57 38.4601C1085.29 38.4601 1085.29 25 1101 25V192H1V111.049C18.0238 111.049 16.7144 116 32.4286 116C48.1428 116 48.1429 101.939 63.8572 101.939C79.5715 101.939 76.9524 106.265 95.2857 106.265C113.619 106.265 108.381 114.366 126.714 114.366C145.048 114.366 141.119 111.289 158.143 111.289C175.167 111.289 171.893 96.6271 189.571 96.6271C207.25 96.6271 202.667 101.41 221 101.41C239.333 101.41 236.06 107.996 252.429 107.996C268.798 107.996 266.179 86.1234 283.857 86.1234C301.536 86.1234 299.571 93.6947 315.286 93.6947C331 93.6947 328.381 83.0948 346.714 83.0948C365.048 83.0948 361.119 89.873 378.143 89.873C395.167 89.873 392.548 62.1595 409.571 62.1595C426.595 62.1595 423.321 69.8751 441 69.8751C458.679 69.8751 454.095 74.9707 472.429 74.9707C490.762 74.9707 486.179 61.7509 503.857 61.7509C521.536 61.7509 516.952 68.2406 535.286 68.2406C553.619 68.2406 550.345 57.5446 566.714 57.5446C583.083 57.5446 581.119 39.6619 598.143 39.6619C615.167 39.6619 612.548 69.5866 629.571 69.5866C646.595 69.5866 644.631 48.6273 661 48.6273C677.369 48.6273 674.095 57.809 692.429 57.809C710.762 57.809 706.833 66.0534 723.857 66.0534C740.881 66.0534 738.917 52.401 755.286 52.401C771.655 52.401 770.345 65.3804 786.714 65.3804C803.083 65.3804 801.119 59.6117 818.143 59.6117C835.167 59.6117 832.548 47.7139 849.571 47.7139C866.595 47.7139 863.976 52.4731 881 52.4731C898.024 52.4731 896.714 35.0951 912.429 35.0951C928.143 35.0951 925.524 58.9147 943.857 58.9147C962.19 58.9147 957.607 42.7385 975.286 42.7385C992.964 42.7385 990.345 49.3965 1006.71 49.3965C1023.08 49.3965 1021.77 32.8117 1038.14 32.8117C1054.51 32.8117 1053.86 38.4601 1069.57 38.4601Z" fill="#155EEF"/>
</g>
<path d="M1101 25C1085.29 25 1085.29 38.4601 1069.57 38.4601C1053.86 38.4601 1054.51 32.8117 1038.14 32.8117C1021.77 32.8117 1023.08 49.3965 1006.71 49.3965C990.345 49.3965 992.964 42.7385 975.286 42.7385C957.607 42.7385 962.19 58.9147 943.857 58.9147C925.524 58.9147 928.143 35.0951 912.429 35.0951C896.714 35.0951 898.024 52.4731 881 52.4731C863.976 52.4731 866.595 47.7139 849.571 47.7139C832.548 47.7139 835.167 59.6117 818.143 59.6117C801.119 59.6117 803.083 65.3804 786.714 65.3804C770.345 65.3804 771.655 52.401 755.286 52.401C738.917 52.401 740.881 66.0534 723.857 66.0534C706.833 66.0534 710.762 57.809 692.429 57.809C674.095 57.809 677.369 48.6273 661 48.6273C644.631 48.6273 646.595 69.5866 629.571 69.5866C612.548 69.5866 615.167 39.6619 598.143 39.6619C581.119 39.6619 583.083 57.5446 566.714 57.5446C550.345 57.5446 553.619 68.2406 535.286 68.2406C516.952 68.2406 521.536 61.7509 503.857 61.7509C486.179 61.7509 490.762 74.9707 472.429 74.9707C454.095 74.9707 458.679 69.8751 441 69.8751C423.321 69.8751 426.595 62.1595 409.571 62.1595C392.548 62.1595 395.167 89.873 378.143 89.873C361.119 89.873 365.048 83.0948 346.714 83.0948C328.381 83.0948 331 93.6947 315.286 93.6947C299.571 93.6947 301.536 86.1234 283.857 86.1234C266.179 86.1234 268.798 107.996 252.429 107.996C236.06 107.996 239.333 101.41 221 101.41C202.667 101.41 207.25 96.6271 189.571 96.6271C171.893 96.6271 175.167 111.289 158.143 111.289C141.119 111.289 145.048 114.366 126.714 114.366C108.381 114.366 113.619 106.265 95.2857 106.265C76.9524 106.265 79.5715 101.939 63.8572 101.939C48.1429 101.939 48.1429 116 32.4286 116C16.7143 116 18.0238 111.049 1 111.049" stroke="#155EEF" stroke-width="2" stroke-linecap="round" stroke-linejoin="round"/>
<path d="M1101 94C1085.29 94 1085.29 99.9854 1069.57 99.9854C1053.86 99.9854 1054.51 100.777 1038.14 100.777C1021.77 100.777 1023.08 104.849 1006.71 104.849C990.345 104.849 992.964 101.888 975.286 101.888C957.607 101.888 962.19 109.081 943.857 109.081C925.524 109.081 928.143 103.444 912.429 103.444C896.714 103.444 898.024 106.217 881 106.217C863.976 106.217 866.595 104.1 849.571 104.1C832.548 104.1 835.167 109.391 818.143 109.391C801.119 109.391 803.083 111.956 786.714 111.956C770.345 111.956 771.655 106.185 755.286 106.185C738.917 106.185 740.881 99.0422 723.857 99.0422C706.833 99.0422 710.762 108.589 692.429 108.589C674.095 108.589 677.369 104.507 661 104.507C644.631 104.507 641.896 106.709 629.571 107.22C617.313 107.728 615.167 107.126 598.143 107.126C581.119 107.126 583.083 108.472 566.714 108.472C550.345 108.472 553.619 113.228 535.286 113.228C516.952 113.228 521.536 110.342 503.857 110.342C486.179 110.342 490.762 116.221 472.429 116.221C454.095 116.221 458.679 113.955 441 113.955C423.321 113.955 426.595 110.524 409.571 110.524C392.548 110.524 395.167 116.241 378.143 116.241C361.119 116.241 365.048 119.833 346.714 119.833C328.381 119.833 326.972 120.942 315.286 124.547C301.672 128.746 301.536 141 283.857 141C266.179 141 265.228 133.465 252.429 130.906C240.424 128.507 239.333 127.978 221 127.978C202.667 127.978 207.25 125.851 189.571 125.851C171.893 125.851 175.167 132.371 158.143 132.371C141.119 132.371 145.048 133.739 126.714 133.739C108.381 133.739 113.619 130.137 95.2857 130.137C76.9524 130.137 79.5715 128.213 63.8572 128.213C48.1429 128.213 48.1429 134.466 32.4286 134.466C16.7143 134.466 18.0238 132.264 1 132.264" stroke="#528BFF" stroke-width="2" stroke-linecap="round" stroke-linejoin="round"/>
<path d="M1101 133C1085.29 133 1085.29 138.917 1069.57 138.917C1053.86 138.917 1054.51 136.434 1038.14 136.434C1021.77 136.434 1023.08 143.724 1006.71 143.724C990.345 143.724 992.964 140.797 975.286 140.797C957.607 140.797 962.19 147.908 943.857 147.908C925.524 147.908 928.143 137.437 912.429 137.437C896.714 137.437 898.024 145.076 881 145.076C863.976 145.076 866.595 142.984 849.571 142.984C832.548 142.984 835.167 148.214 818.143 148.214C801.119 148.214 803.083 150.75 786.714 150.75C770.345 150.75 771.655 145.044 755.286 145.044C738.917 145.044 740.881 151.045 723.857 151.045C706.833 151.045 710.762 147.422 692.429 147.422C674.095 147.422 677.369 143.386 661 143.386C644.631 143.386 646.595 152.599 629.571 152.599C612.548 152.599 615.167 139.445 598.143 139.445C581.119 139.445 583.083 147.305 566.714 147.305C550.345 147.305 553.619 152.007 535.286 152.007C516.952 152.007 521.536 149.154 503.857 149.154C486.179 149.154 490.762 154.965 472.429 154.965C454.095 154.965 458.679 152.725 441 152.725C423.321 152.725 426.595 149.334 409.571 149.334C392.548 149.334 395.167 161.516 378.143 161.516C361.119 161.516 365.048 158.536 346.714 158.536C328.381 158.536 331 163.195 315.286 163.195C299.571 163.195 301.536 159.867 283.857 159.867C266.179 159.867 268.798 169.482 252.429 169.482C236.06 169.482 239.333 166.587 221 166.587C202.667 166.587 207.25 164.484 189.571 164.484C171.893 164.484 175.167 170.929 158.143 170.929C141.119 170.929 145.048 172.282 126.714 172.282C108.381 172.282 113.619 168.721 95.2857 168.721C76.9524 168.721 79.5715 166.819 63.8572 166.819C48.1429 166.819 48.1429 173 32.4286 173C16.7143 173 18.0238 170.824 1 170.824" stroke="#004EEB" stroke-width="2" stroke-linecap="round" stroke-linejoin="round"/>
<defs>
<linearGradient id="paint0_linear_1062_46568" x1="550" y1="0" x2="550" y2="167" gradientUnits="userSpaceOnUse">
<stop/>
<stop offset="1" stop-opacity="0"/>
</linearGradient>
</defs>
</svg>
