<svg width="121" height="121" viewBox="0 0 121 121" fill="none" xmlns="http://www.w3.org/2000/svg">
<g id="_Pie chart">
<path id="Background" d="M120.667 60.5C120.667 93.6371 93.8036 120.5 60.6665 120.5C27.5294 120.5 0.666504 93.6371 0.666504 60.5C0.666504 27.3629 27.5294 0.5 60.6665 0.5C93.8036 0.5 120.667 27.3629 120.667 60.5ZM30.6665 60.5C30.6665 77.0685 44.098 90.5 60.6665 90.5C77.235 90.5 90.6665 77.0685 90.6665 60.5C90.6665 43.9315 77.235 30.5 60.6665 30.5C44.098 30.5 30.6665 43.9315 30.6665 60.5Z" fill="#E4E4E7"/>
<path id="Series 1" d="M60.6665 0.5C73.3373 0.5 85.6828 4.5113 95.9336 11.959C106.184 19.4067 113.814 29.9084 117.73 41.959L89.1982 51.2295C87.2405 45.2042 83.4255 39.9533 78.3001 36.2295C73.1746 32.5056 67.0019 30.5 60.6665 30.5V0.5Z" fill="#155EEF"/>
<path id="Series 2" d="M117.73 41.959C121.149 52.4827 121.592 63.7471 119.009 74.5067C116.426 85.2663 110.917 95.102 103.093 102.926C95.2685 110.751 85.4328 116.259 74.6732 118.842C63.9136 121.425 52.6493 120.983 42.1255 117.563L51.396 89.0317C56.6579 90.7414 62.2901 90.9627 67.6699 89.6711C73.0497 88.3795 77.9675 85.6254 81.8797 81.7132C85.7919 77.801 88.546 72.8832 89.8376 67.5034C91.1292 62.1236 90.9079 56.4914 89.1982 51.2295L117.73 41.959Z" fill="#2970FF"/>
<path id="Series 3" d="M42.1255 117.563C30.0749 113.648 19.5732 106.018 12.1255 95.7671L36.396 78.1336C40.1198 83.259 45.3707 87.074 51.396 89.0317L42.1255 117.563Z" fill="#528BFF"/>
</g>
</svg>
