<svg width="235" height="137" viewBox="0 0 235 137" fill="none" xmlns="http://www.w3.org/2000/svg">
<g id="Ring">
<path id="Background" d="M224.334 105.5C224.334 93.0244 221.566 80.671 216.189 69.1451C210.812 57.6192 202.93 47.1464 192.994 38.3249C183.059 29.5033 171.263 22.5056 158.281 17.7314C145.299 12.9572 131.385 10.5 117.334 10.5C103.283 10.5 89.3688 12.9572 76.3869 17.7314C63.4051 22.5056 51.6095 29.5033 41.6736 38.3248C31.7377 47.1464 23.8562 57.6191 18.4789 69.145C13.1016 80.671 10.334 93.0244 10.334 105.5" stroke="#E4E4E7" stroke-width="20" stroke-linecap="round" stroke-linejoin="round"/>
<path id="Line" d="M10.334 105.5C10.334 85.438 17.4875 65.8909 30.7692 49.6604C44.0509 33.4299 62.7789 21.3491 84.2692 15.1496" stroke="#155EEF" stroke-width="20" stroke-linecap="round" stroke-linejoin="round"/>
</g>
</svg>
