<svg width="110" height="58" viewBox="0 0 110 58" fill="none" xmlns="http://www.w3.org/2000/svg">
<g clip-path="url(#clip0_8472_17631)">
<mask id="mask0_8472_17631" style="mask-type:alpha" maskUnits="userSpaceOnUse" x="0" y="0" width="55" height="29">
<rect width="55" height="29" transform="matrix(-1 0 0 1 55 0)" fill="url(#paint0_linear_8472_17631)"/>
</mask>
<g mask="url(#mask0_8472_17631)">
<path opacity="0.1" d="M53.7535 7.10885L55 7.74658V29H0V0L1.16855 1.05916H2.41501L2.99929 2.05091H3.77832C3.98607 2.21621 4.41714 2.54679 4.47946 2.54679C4.54178 2.54679 4.94688 2.74514 5.14164 2.84432L6.81657 3.14184L7.79037 3.53854L9.34844 3.14184L10.1664 2.84432L11.335 3.53854H12.5425L13.5552 2.84432C13.9448 2.74514 14.7394 2.54679 14.8017 2.54679C14.864 2.54679 15.373 2.34844 15.6197 2.24926H16.2429L17.7231 2.54679L19.0085 2.84432L19.5928 3.53854L21.3456 3.83607L22.2415 4.13359L23.2543 4.62947L24.228 5.81957H24.6565L25.8251 5.52205L26.9547 4.62947L27.9285 4.13359H28.5127L29.5255 3.83607L30.9667 4.13359H32.33L33.6933 4.62947L35.0567 5.22452L36.0694 5.81957L37.1601 6.1171L38.6402 5.81957L39.8088 6.1171L40.9773 6.41462L42.068 6.1171L43.5482 6.81132L44.7946 6.41462L46.0411 6.81132H47.2486L48.534 7.10885H49.8584L51.1827 7.40638L52.4681 6.81132L53.7535 7.10885Z" fill="#155EEF"/>
</g>
<path d="M55 7.74658L53.7535 7.10885L52.4681 6.81132L51.1827 7.40638L49.8584 7.10885H48.534L47.2486 6.81132H46.0411L44.7946 6.41462L43.5482 6.81132L42.068 6.1171L40.9773 6.41462L39.8088 6.1171L38.6402 5.81957L37.1601 6.1171L36.0694 5.81957L35.0567 5.22452L33.6933 4.62947L32.33 4.13359H30.9667L29.5255 3.83607L28.5127 4.13359H27.9285L26.9547 4.62947L25.8251 5.52205L24.6565 5.81957H24.228L23.2543 4.62947L22.2415 4.13359L21.3456 3.83607L19.5928 3.53854L19.0085 2.84432L17.7231 2.54679L16.2429 2.24926H15.6197C15.373 2.34844 14.864 2.54679 14.8017 2.54679C14.7394 2.54679 13.9448 2.74514 13.5552 2.84432L12.5425 3.53854H11.335L10.1664 2.84432L9.34844 3.14184L7.79037 3.53854L6.81657 3.14184L5.14164 2.84432C4.94689 2.74514 4.54179 2.54679 4.47946 2.54679C4.41714 2.54679 3.98607 2.21621 3.77833 2.05091H2.99929L2.41502 1.05916H1.16856L1.56462e-06 0" stroke="#155EEF" stroke-width="2" stroke-linecap="round" stroke-linejoin="round"/>
<g clip-path="url(#clip1_8472_17631)">
<mask id="mask1_8472_17631" style="mask-type:alpha" maskUnits="userSpaceOnUse" x="55" y="29" width="55" height="29">
<rect width="55" height="29" transform="matrix(1 0 0 -1 55 58)" fill="url(#paint1_linear_8472_17631)"/>
</mask>
<g mask="url(#mask1_8472_17631)">
<path opacity="0.1" d="M56.2465 50.8911L55 50.2534V29H110V58L108.831 56.9408H107.585L107.001 55.9491H106.222C106.014 55.7838 105.583 55.4532 105.521 55.4532C105.458 55.4532 105.053 55.2549 104.858 55.1557L103.183 54.8582L102.21 54.4615L100.652 54.8582L99.8336 55.1557L98.665 54.4615H97.4575L96.4448 55.1557C96.0552 55.2549 95.2606 55.4532 95.1983 55.4532C95.136 55.4532 94.627 55.6516 94.3803 55.7507H93.7571L92.2769 55.4532L90.9915 55.1557L90.4072 54.4615L88.6544 54.1639L87.7585 53.8664L86.7457 53.3705L85.772 52.1804H85.3435L84.1749 52.478L83.0453 53.3705L82.0715 53.8664H81.4873L80.4745 54.1639L79.0333 53.8664H77.67L76.3067 53.3705L74.9433 52.7755L73.9306 52.1804L72.8399 51.8829L71.3598 52.1804L70.1912 51.8829L69.0227 51.5854L67.932 51.8829L66.4518 51.1887L65.2054 51.5854L63.9589 51.1887H62.7514L61.466 50.8911H60.1416L58.8173 50.5936L57.5319 51.1887L56.2465 50.8911Z" fill="#155EEF"/>
</g>
<path d="M55 50.2534L56.2465 50.8911L57.5319 51.1887L58.8173 50.5936L60.1416 50.8911H61.466L62.7514 51.1887H63.9589L65.2054 51.5854L66.4518 51.1887L67.932 51.8829L69.0227 51.5854L70.1912 51.8829L71.3598 52.1804L72.8399 51.8829L73.9306 52.1804L74.9433 52.7755L76.3067 53.3705L77.67 53.8664H79.0333L80.4745 54.1639L81.4873 53.8664H82.0715L83.0453 53.3705L84.1749 52.478L85.3435 52.1804H85.772L86.7457 53.3705L87.7585 53.8664L88.6544 54.1639L90.4072 54.4615L90.9915 55.1557L92.2769 55.4532L93.7571 55.7507H94.3803C94.627 55.6516 95.136 55.4532 95.1983 55.4532C95.2606 55.4532 96.0552 55.2549 96.4448 55.1557L97.4575 54.4615H98.665L99.8336 55.1557L100.652 54.8582L102.21 54.4615L103.183 54.8582L104.858 55.1557C105.053 55.2549 105.458 55.4532 105.521 55.4532C105.583 55.4532 106.014 55.7838 106.222 55.9491H107.001L107.585 56.9408H108.831L110 58" stroke="#155EEF" stroke-width="2" stroke-linecap="round" stroke-linejoin="round"/>
</g>
<path d="M0 30H110V28H0V30Z" fill="#E4E4E7" mask="url(#path-3-inside-1_8472_17631)"/>
</g>
<defs>
<linearGradient id="paint0_linear_8472_17631" x1="27.5" y1="0" x2="27.5" y2="29" gradientUnits="userSpaceOnUse">
<stop/>
<stop offset="1" stop-opacity="0"/>
</linearGradient>
<linearGradient id="paint1_linear_8472_17631" x1="27.5" y1="0" x2="27.5" y2="29" gradientUnits="userSpaceOnUse">
<stop/>
<stop offset="1" stop-opacity="0"/>
</linearGradient>
<clipPath id="clip0_8472_17631">
<rect width="110" height="58" fill="white"/>
</clipPath>
<clipPath id="clip1_8472_17631">
<path d="M0 29H110V58H0V29Z" fill="white"/>
</clipPath>
</defs>
</svg>
